<mxfile host="65bd71144e">
    <diagram id="e0kABB2plr7CaTiOAYdP" name="Create Token">
        <mxGraphModel dx="981" dy="564" grid="1" gridSize="10" guides="1" tooltips="1" connect="1" arrows="1" fold="1" page="1" pageScale="1" pageWidth="1920" pageHeight="1200" math="0" shadow="0">
            <root>
                <mxCell id="0"/>
                <mxCell id="1" parent="0"/>
                <mxCell id="9" value="" style="edgeStyle=none;html=1;entryX=0;entryY=0.5;entryDx=0;entryDy=0;" edge="1" parent="1" source="2" target="4">
                    <mxGeometry relative="1" as="geometry">
                        <mxPoint as="offset"/>
                    </mxGeometry>
                </mxCell>
                <mxCell id="12" value="2. Create Pair through factory" style="edgeLabel;html=1;align=center;verticalAlign=middle;resizable=0;points=[];" vertex="1" connectable="0" parent="9">
                    <mxGeometry x="-0.0119" relative="1" as="geometry">
                        <mxPoint as="offset"/>
                    </mxGeometry>
                </mxCell>
                <mxCell id="11" value="1. Create a new ERC20 token" style="edgeStyle=none;html=1;entryX=0.5;entryY=1;entryDx=0;entryDy=0;" edge="1" parent="1" source="2" target="7">
                    <mxGeometry relative="1" as="geometry">
                        <mxPoint as="offset"/>
                    </mxGeometry>
                </mxCell>
                <mxCell id="2" value="MemexDay" style="rounded=1;whiteSpace=wrap;html=1;" vertex="1" parent="1">
                    <mxGeometry x="880" y="400" width="120" height="60" as="geometry"/>
                </mxCell>
                <mxCell id="3" value="DexLauncher" style="rounded=1;whiteSpace=wrap;html=1;" vertex="1" parent="1">
                    <mxGeometry x="1350" y="310" width="120" height="60" as="geometry"/>
                </mxCell>
                <mxCell id="10" style="edgeStyle=none;html=1;entryX=0.5;entryY=0;entryDx=0;entryDy=0;" edge="1" parent="1" source="4" target="5">
                    <mxGeometry relative="1" as="geometry"/>
                </mxCell>
                <mxCell id="13" value="3. Create a pair between token and WGAS" style="edgeLabel;html=1;align=center;verticalAlign=middle;resizable=0;points=[];" vertex="1" connectable="0" parent="10">
                    <mxGeometry x="-0.0683" relative="1" as="geometry">
                        <mxPoint as="offset"/>
                    </mxGeometry>
                </mxCell>
                <mxCell id="4" value="Factory" style="rounded=1;whiteSpace=wrap;html=1;" vertex="1" parent="1">
                    <mxGeometry x="1200" y="400" width="120" height="60" as="geometry"/>
                </mxCell>
                <mxCell id="5" value="Pair" style="rounded=1;whiteSpace=wrap;html=1;" vertex="1" parent="1">
                    <mxGeometry x="1200" y="560" width="120" height="60" as="geometry"/>
                </mxCell>
                <mxCell id="7" value="ERC20" style="rounded=1;whiteSpace=wrap;html=1;" vertex="1" parent="1">
                    <mxGeometry x="880" y="220" width="120" height="60" as="geometry"/>
                </mxCell>
                <mxCell id="8" value="Router" style="rounded=1;whiteSpace=wrap;html=1;" vertex="1" parent="1">
                    <mxGeometry x="680" y="400" width="120" height="60" as="geometry"/>
                </mxCell>
            </root>
        </mxGraphModel>
    </diagram>
    <diagram id="ziY0vys3lr7KpmYGG8jO" name="Trade Token">
        <mxGraphModel dx="633" dy="364" grid="1" gridSize="10" guides="1" tooltips="1" connect="1" arrows="1" fold="1" page="1" pageScale="1" pageWidth="1920" pageHeight="1200" math="0" shadow="0">
            <root>
                <mxCell id="0"/>
                <mxCell id="1" parent="0"/>
                <mxCell id="O5vwIdzQ_x0O7eJaFwQ9-13" value="1. SwapETHForToken" style="edgeStyle=none;html=1;entryX=0;entryY=0.167;entryDx=0;entryDy=0;entryPerimeter=0;exitX=1;exitY=0.167;exitDx=0;exitDy=0;exitPerimeter=0;" edge="1" parent="1" source="O5vwIdzQ_x0O7eJaFwQ9-4" target="O5vwIdzQ_x0O7eJaFwQ9-10">
                    <mxGeometry relative="1" as="geometry"/>
                </mxCell>
                <mxCell id="O5vwIdzQ_x0O7eJaFwQ9-4" value="MemexDay" style="rounded=1;whiteSpace=wrap;html=1;" vertex="1" parent="1">
                    <mxGeometry x="640" y="600" width="120" height="60" as="geometry"/>
                </mxCell>
                <mxCell id="O5vwIdzQ_x0O7eJaFwQ9-8" value="Pair" style="rounded=1;whiteSpace=wrap;html=1;" vertex="1" parent="1">
                    <mxGeometry x="920" y="380" width="120" height="60" as="geometry"/>
                </mxCell>
                <mxCell id="O5vwIdzQ_x0O7eJaFwQ9-10" value="Router" style="rounded=1;whiteSpace=wrap;html=1;" vertex="1" parent="1">
                    <mxGeometry x="920" y="600" width="120" height="60" as="geometry"/>
                </mxCell>
                <mxCell id="O5vwIdzQ_x0O7eJaFwQ9-12" value="0. Buy tokens" style="edgeStyle=none;html=1;entryX=0.5;entryY=0;entryDx=0;entryDy=0;" edge="1" parent="1" source="O5vwIdzQ_x0O7eJaFwQ9-11" target="O5vwIdzQ_x0O7eJaFwQ9-4">
                    <mxGeometry relative="1" as="geometry"/>
                </mxCell>
                <mxCell id="O5vwIdzQ_x0O7eJaFwQ9-11" value="Actor" style="shape=umlActor;verticalLabelPosition=bottom;verticalAlign=top;html=1;outlineConnect=0;" vertex="1" parent="1">
                    <mxGeometry x="685" y="380" width="30" height="60" as="geometry"/>
                </mxCell>
                <mxCell id="O5vwIdzQ_x0O7eJaFwQ9-14" value="4. Transaction fee out&amp;nbsp;" style="edgeStyle=none;html=1;entryX=0;entryY=0.167;entryDx=0;entryDy=0;entryPerimeter=0;exitX=1;exitY=0.167;exitDx=0;exitDy=0;exitPerimeter=0;" edge="1" parent="1">
                    <mxGeometry relative="1" as="geometry">
                        <mxPoint x="920" y="650" as="sourcePoint"/>
                        <mxPoint x="760" y="650" as="targetPoint"/>
                    </mxGeometry>
                </mxCell>
                <mxCell id="O5vwIdzQ_x0O7eJaFwQ9-15" value="2. ETH in" style="endArrow=classic;html=1;" edge="1" parent="1">
                    <mxGeometry width="50" height="50" relative="1" as="geometry">
                        <mxPoint x="979.75" y="600" as="sourcePoint"/>
                        <mxPoint x="979.75" y="440" as="targetPoint"/>
                    </mxGeometry>
                </mxCell>
                <mxCell id="O5vwIdzQ_x0O7eJaFwQ9-16" value="3. Token out" style="endArrow=classic;html=1;exitX=0;exitY=0.5;exitDx=0;exitDy=0;" edge="1" parent="1" source="O5vwIdzQ_x0O7eJaFwQ9-8">
                    <mxGeometry width="50" height="50" relative="1" as="geometry">
                        <mxPoint x="880" y="450" as="sourcePoint"/>
                        <mxPoint x="720" y="410" as="targetPoint"/>
                        <mxPoint as="offset"/>
                    </mxGeometry>
                </mxCell>
                <mxCell id="O5vwIdzQ_x0O7eJaFwQ9-26" value="1. SwapTokenForETH" style="edgeStyle=none;html=1;entryX=0;entryY=0.167;entryDx=0;entryDy=0;entryPerimeter=0;exitX=1;exitY=0.167;exitDx=0;exitDy=0;exitPerimeter=0;" edge="1" parent="1" source="O5vwIdzQ_x0O7eJaFwQ9-27" target="O5vwIdzQ_x0O7eJaFwQ9-29">
                    <mxGeometry relative="1" as="geometry"/>
                </mxCell>
                <mxCell id="O5vwIdzQ_x0O7eJaFwQ9-27" value="MemexDay" style="rounded=1;whiteSpace=wrap;html=1;" vertex="1" parent="1">
                    <mxGeometry x="1120" y="600" width="120" height="60" as="geometry"/>
                </mxCell>
                <mxCell id="O5vwIdzQ_x0O7eJaFwQ9-28" value="Pair" style="rounded=1;whiteSpace=wrap;html=1;" vertex="1" parent="1">
                    <mxGeometry x="1400" y="380" width="120" height="60" as="geometry"/>
                </mxCell>
                <mxCell id="O5vwIdzQ_x0O7eJaFwQ9-29" value="Router" style="rounded=1;whiteSpace=wrap;html=1;" vertex="1" parent="1">
                    <mxGeometry x="1400" y="600" width="120" height="60" as="geometry"/>
                </mxCell>
                <mxCell id="O5vwIdzQ_x0O7eJaFwQ9-30" value="0. Sell tokens" style="edgeStyle=none;html=1;entryX=0.5;entryY=0;entryDx=0;entryDy=0;" edge="1" parent="1" source="O5vwIdzQ_x0O7eJaFwQ9-31" target="O5vwIdzQ_x0O7eJaFwQ9-27">
                    <mxGeometry relative="1" as="geometry"/>
                </mxCell>
                <mxCell id="O5vwIdzQ_x0O7eJaFwQ9-31" value="Actor" style="shape=umlActor;verticalLabelPosition=bottom;verticalAlign=top;html=1;outlineConnect=0;" vertex="1" parent="1">
                    <mxGeometry x="1165" y="380" width="30" height="60" as="geometry"/>
                </mxCell>
                <mxCell id="O5vwIdzQ_x0O7eJaFwQ9-32" value="4. Transaction fee out&amp;nbsp;" style="edgeStyle=none;html=1;entryX=0;entryY=0.167;entryDx=0;entryDy=0;entryPerimeter=0;exitX=1;exitY=0.167;exitDx=0;exitDy=0;exitPerimeter=0;" edge="1" parent="1">
                    <mxGeometry relative="1" as="geometry">
                        <mxPoint x="1400" y="650" as="sourcePoint"/>
                        <mxPoint x="1240" y="650" as="targetPoint"/>
                    </mxGeometry>
                </mxCell>
                <mxCell id="O5vwIdzQ_x0O7eJaFwQ9-33" value="2. Token in" style="endArrow=classic;html=1;" edge="1" parent="1">
                    <mxGeometry width="50" height="50" relative="1" as="geometry">
                        <mxPoint x="1459.75" y="600" as="sourcePoint"/>
                        <mxPoint x="1459.75" y="440" as="targetPoint"/>
                    </mxGeometry>
                </mxCell>
                <mxCell id="O5vwIdzQ_x0O7eJaFwQ9-34" value="3. ETH out" style="endArrow=classic;html=1;exitX=0;exitY=0.5;exitDx=0;exitDy=0;" edge="1" parent="1" source="O5vwIdzQ_x0O7eJaFwQ9-28">
                    <mxGeometry width="50" height="50" relative="1" as="geometry">
                        <mxPoint x="1360" y="450" as="sourcePoint"/>
                        <mxPoint x="1200" y="410" as="targetPoint"/>
                        <mxPoint as="offset"/>
                    </mxGeometry>
                </mxCell>
            </root>
        </mxGraphModel>
    </diagram>
</mxfile>